<mxfile host="65bd71144e">
    <diagram id="uxYDzxc2ABPSpleY-eBa" name="Page-1">
        <mxGraphModel dx="980" dy="682" grid="1" gridSize="10" guides="1" tooltips="1" connect="1" arrows="1" fold="1" page="1" pageScale="1" pageWidth="827" pageHeight="1169" math="0" shadow="0">
            <root>
                <mxCell id="0"/>
                <mxCell id="1" parent="0"/>
                <mxCell id="4" style="edgeStyle=orthogonalEdgeStyle;html=1;fontFamily=Courier New;fontStyle=1" edge="1" parent="1" source="2">
                    <mxGeometry relative="1" as="geometry">
                        <mxPoint x="200" y="240" as="targetPoint"/>
                        <Array as="points">
                            <mxPoint x="400" y="200"/>
                            <mxPoint x="200" y="200"/>
                        </Array>
                    </mxGeometry>
                </mxCell>
                <mxCell id="5" value="&lt;span style=&quot;background-color: rgb(43 , 255 , 0)&quot;&gt;&amp;nbsp; Reinforcement Learning&amp;nbsp;&amp;nbsp;&lt;/span&gt;" style="edgeLabel;html=1;align=center;verticalAlign=middle;resizable=0;points=[];fontFamily=Courier New;fontStyle=1" vertex="1" connectable="0" parent="4">
                    <mxGeometry x="0.2094" y="-4" relative="1" as="geometry">
                        <mxPoint x="29" y="4" as="offset"/>
                    </mxGeometry>
                </mxCell>
                <mxCell id="9" style="edgeStyle=orthogonalEdgeStyle;html=1;fontFamily=Courier New;fontStyle=1" edge="1" parent="1" source="2">
                    <mxGeometry relative="1" as="geometry">
                        <mxPoint x="600" y="240" as="targetPoint"/>
                        <Array as="points">
                            <mxPoint x="400" y="200"/>
                            <mxPoint x="600" y="200"/>
                            <mxPoint x="600" y="240"/>
                        </Array>
                    </mxGeometry>
                </mxCell>
                <mxCell id="10" value="&lt;span style=&quot;background-color: rgb(60 , 255 , 0)&quot;&gt;&amp;nbsp; Image Generation &amp;amp;RL&amp;nbsp;&amp;nbsp;&lt;/span&gt;" style="edgeLabel;html=1;align=center;verticalAlign=middle;resizable=0;points=[];fontFamily=Courier New;fontStyle=1" vertex="1" connectable="0" parent="9">
                    <mxGeometry x="-0.1014" y="-1" relative="1" as="geometry">
                        <mxPoint x="9" y="-1" as="offset"/>
                    </mxGeometry>
                </mxCell>
                <mxCell id="2" value="Start" style="ellipse;whiteSpace=wrap;html=1;aspect=fixed;fontFamily=Courier New;fontStyle=1" vertex="1" parent="1">
                    <mxGeometry x="360" y="80" width="80" height="80" as="geometry"/>
                </mxCell>
                <mxCell id="19" style="edgeStyle=orthogonalEdgeStyle;html=1;entryX=0.5;entryY=0;entryDx=0;entryDy=0;fontFamily=Courier New;fontStyle=1" edge="1" parent="1" source="13" target="18">
                    <mxGeometry relative="1" as="geometry"/>
                </mxCell>
                <mxCell id="13" value="URP Releases" style="rounded=0;whiteSpace=wrap;html=1;fillColor=#6d8764;strokeColor=#3A5431;fontColor=#ffffff;fontFamily=Courier New;fontStyle=1" vertex="1" parent="1">
                    <mxGeometry x="140" y="240" width="120" height="20" as="geometry"/>
                </mxCell>
                <mxCell id="20" style="edgeStyle=orthogonalEdgeStyle;html=1;fontFamily=Courier New;fontStyle=1" edge="1" parent="1" source="18">
                    <mxGeometry relative="1" as="geometry">
                        <mxPoint x="200" y="400" as="targetPoint"/>
                    </mxGeometry>
                </mxCell>
                <mxCell id="24" value="&amp;nbsp; Yes&amp;nbsp;&amp;nbsp;" style="edgeLabel;html=1;align=center;verticalAlign=middle;resizable=0;points=[];fontFamily=Courier New;fontStyle=1" vertex="1" connectable="0" parent="20">
                    <mxGeometry x="-0.272" y="-2" relative="1" as="geometry">
                        <mxPoint as="offset"/>
                    </mxGeometry>
                </mxCell>
                <mxCell id="23" style="edgeStyle=orthogonalEdgeStyle;html=1;exitX=1;exitY=0.5;exitDx=0;exitDy=0;entryX=0;entryY=0.5;entryDx=0;entryDy=0;fontFamily=Courier New;fontStyle=1" edge="1" parent="1" source="18" target="22">
                    <mxGeometry relative="1" as="geometry"/>
                </mxCell>
                <mxCell id="25" value="&amp;nbsp;No&amp;nbsp;" style="edgeLabel;html=1;align=center;verticalAlign=middle;resizable=0;points=[];fontFamily=Courier New;fontStyle=1" vertex="1" connectable="0" parent="23">
                    <mxGeometry x="-0.2822" relative="1" as="geometry">
                        <mxPoint as="offset"/>
                    </mxGeometry>
                </mxCell>
                <mxCell id="18" value="Know&lt;br&gt;Unity?" style="rhombus;whiteSpace=wrap;html=1;fontFamily=Courier New;fontStyle=1" vertex="1" parent="1">
                    <mxGeometry x="160" y="290" width="80" height="60" as="geometry"/>
                </mxCell>
                <mxCell id="30" style="edgeStyle=orthogonalEdgeStyle;html=1;exitX=1;exitY=0.5;exitDx=0;exitDy=0;entryX=0.5;entryY=0;entryDx=0;entryDy=0;fontFamily=Courier New;fontStyle=1" edge="1" parent="1" source="21" target="28">
                    <mxGeometry relative="1" as="geometry"/>
                </mxCell>
                <mxCell id="21" value="Use Source code and Unity Editor" style="rounded=0;whiteSpace=wrap;html=1;fillColor=#f0a30a;strokeColor=#BD7000;fontColor=#000000;fontFamily=Courier New;fontStyle=1" vertex="1" parent="1">
                    <mxGeometry x="140" y="400" width="120" height="40" as="geometry"/>
                </mxCell>
                <mxCell id="29" value="" style="edgeStyle=orthogonalEdgeStyle;html=1;fontFamily=Courier New;fontStyle=1" edge="1" parent="1" source="22" target="28">
                    <mxGeometry relative="1" as="geometry"/>
                </mxCell>
                <mxCell id="31" value="Learn Unity" style="edgeLabel;html=1;align=center;verticalAlign=middle;resizable=0;points=[];fontFamily=Courier New;fontStyle=1" vertex="1" connectable="0" parent="29">
                    <mxGeometry x="-0.1257" y="-1" relative="1" as="geometry">
                        <mxPoint as="offset"/>
                    </mxGeometry>
                </mxCell>
                <mxCell id="22" value="Use Binary releases" style="rounded=0;whiteSpace=wrap;html=1;fillColor=#fa6800;strokeColor=#C73500;fontColor=#000000;fontFamily=Courier New;fontStyle=1" vertex="1" parent="1">
                    <mxGeometry x="280" y="300" width="120" height="40" as="geometry"/>
                </mxCell>
                <mxCell id="28" value="Contribute to Aircontrol" style="rounded=0;whiteSpace=wrap;html=1;fillColor=#60a917;strokeColor=#2D7600;fontColor=#ffffff;fontFamily=Courier New;fontStyle=1" vertex="1" parent="1">
                    <mxGeometry x="280" y="480" width="120" height="40" as="geometry"/>
                </mxCell>
                <mxCell id="34" value="" style="edgeStyle=orthogonalEdgeStyle;html=1;fontFamily=Courier New;fontStyle=1" edge="1" parent="1" source="32" target="33">
                    <mxGeometry relative="1" as="geometry"/>
                </mxCell>
                <mxCell id="32" value="HDRP Source code" style="rounded=0;whiteSpace=wrap;html=1;fillColor=#6d8764;strokeColor=#3A5431;fontColor=#ffffff;fontFamily=Courier New;fontStyle=1" vertex="1" parent="1">
                    <mxGeometry x="540" y="240" width="120" height="20" as="geometry"/>
                </mxCell>
                <mxCell id="36" style="edgeStyle=orthogonalEdgeStyle;html=1;entryX=0.5;entryY=0;entryDx=0;entryDy=0;fontFamily=Courier New;fontStyle=1" edge="1" parent="1" source="33" target="35">
                    <mxGeometry relative="1" as="geometry"/>
                </mxCell>
                <mxCell id="38" style="edgeStyle=orthogonalEdgeStyle;html=1;exitX=0.5;exitY=1;exitDx=0;exitDy=0;fontFamily=Courier New;fontStyle=1" edge="1" parent="1" source="33" target="37">
                    <mxGeometry relative="1" as="geometry"/>
                </mxCell>
                <mxCell id="33" value="Edit maps and environment" style="rounded=0;whiteSpace=wrap;html=1;fillColor=#f0a30a;strokeColor=#BD7000;fontColor=#000000;fontFamily=Courier New;fontStyle=1" vertex="1" parent="1">
                    <mxGeometry x="540" y="290" width="120" height="30" as="geometry"/>
                </mxCell>
                <mxCell id="40" value="" style="edgeStyle=orthogonalEdgeStyle;html=1;fontFamily=Courier New;fontStyle=1" edge="1" parent="1" source="35" target="39">
                    <mxGeometry relative="1" as="geometry"/>
                </mxCell>
                <mxCell id="35" value="Use Python API" style="rounded=0;whiteSpace=wrap;html=1;fillColor=#647687;strokeColor=#314354;fontColor=#ffffff;fontFamily=Courier New;fontStyle=1" vertex="1" parent="1">
                    <mxGeometry x="490" y="380" width="100" height="50" as="geometry"/>
                </mxCell>
                <mxCell id="41" style="edgeStyle=orthogonalEdgeStyle;html=1;entryX=0.5;entryY=0;entryDx=0;entryDy=0;fontFamily=Courier New;fontStyle=1" edge="1" parent="1" source="37" target="39">
                    <mxGeometry relative="1" as="geometry"/>
                </mxCell>
                <mxCell id="37" value="Go through contribution guide" style="rounded=0;whiteSpace=wrap;html=1;fillColor=#647687;strokeColor=#314354;fontColor=#ffffff;fontFamily=Courier New;fontStyle=1" vertex="1" parent="1">
                    <mxGeometry x="610" y="380" width="100" height="50" as="geometry"/>
                </mxCell>
                <mxCell id="42" style="edgeStyle=orthogonalEdgeStyle;html=1;entryX=1;entryY=0.5;entryDx=0;entryDy=0;fontFamily=Courier New;fontStyle=1" edge="1" parent="1" source="39" target="28">
                    <mxGeometry relative="1" as="geometry"/>
                </mxCell>
                <mxCell id="39" value="Edit AirControl Code" style="rounded=0;whiteSpace=wrap;html=1;fillColor=#1ba1e2;strokeColor=#006EAF;fontColor=#ffffff;fontFamily=Courier New;fontStyle=1" vertex="1" parent="1">
                    <mxGeometry x="540" y="480" width="120" height="40" as="geometry"/>
                </mxCell>
                <mxCell id="49" value="" style="html=1;verticalLabelPosition=bottom;labelBackgroundColor=#ffffff;verticalAlign=top;shadow=0;dashed=0;strokeWidth=2;shape=mxgraph.ios7.misc.star;fillColor=#a20025;strokeColor=#6F0000;fontColor=#ffffff;fontFamily=Courier New;fontStyle=1" vertex="1" parent="1">
                    <mxGeometry x="370" y="500" width="12" height="12" as="geometry"/>
                </mxCell>
                <mxCell id="50" value="" style="aspect=fixed;html=1;points=[];align=center;image;fontSize=12;image=img/lib/mscae/Person.svg;fontFamily=Courier New;fontStyle=1" vertex="1" parent="1">
                    <mxGeometry x="392.6" y="130" width="14.8" height="20" as="geometry"/>
                </mxCell>
            </root>
        </mxGraphModel>
    </diagram>
</mxfile>